<?xml version="1.0" encoding="UTF-8" standalone="no"?>
<!-- Created with Vectornator Pro for iOS (http://vectornator.io/) -->
<!DOCTYPE svg PUBLIC "-//W3C//DTD SVG 1.1//EN" "http://www.w3.org/Graphics/SVG/1.1/DTD/svg11.dtd">
<svg style="fill-rule:evenodd;clip-rule:evenodd;stroke-linecap:round;stroke-linejoin:round;" xmlns:vectornator="http://vectornator.io" xmlns:xlink="http://www.w3.org/1999/xlink" xmlns="http://www.w3.org/2000/svg" xml:space="preserve" version="1.1" viewBox="0 0 500 500">
<defs>
<linearGradient y1="292.224" id="LinearGradient" x1="235.906" y2="0" x2="235.906" gradientUnits="userSpaceOnUse" gradientTransform="matrix(1 0 0 1 0 0)">
<stop stop-color="#9b9b9b" offset="0"/>
<stop stop-color="#d8d8d8" offset="1"/>
</linearGradient>
<linearGradient y1="381.156" id="LinearGradient_2" x1="242.584" y2="292.774" x2="242.584" gradientUnits="userSpaceOnUse" gradientTransform="matrix(1 0 0 1 0 0)">
<stop stop-color="#c8c8c8" offset="0"/>
<stop stop-color="#ffffff" offset="1"/>
</linearGradient>
<linearGradient y1="54.0863" id="LinearGradient_3" x1="358.546" y2="3.23499" x2="358.546" gradientUnits="userSpaceOnUse" gradientTransform="matrix(1 0 0 1 0 0)">
<stop stop-color="#c8c8c8" offset="0"/>
<stop stop-color="#ffffff" offset="1"/>
</linearGradient>
<linearGradient y1="201.141" id="LinearGradient_4" x1="266.515" y2="408.64" x2="266.515" gradientUnits="userSpaceOnUse" gradientTransform="matrix(1 0 0 1 0 0)">
<stop stop-color="#d5d2d2" offset="0"/>
<stop stop-color="#ffffff" offset="1"/>
</linearGradient>
<linearGradient y1="500" id="LinearGradient_5" x1="251.994" y2="371.207" x2="251.994" gradientUnits="userSpaceOnUse" gradientTransform="matrix(1 0 0 1 0 0)">
<stop stop-color="#979797" offset="0"/>
<stop stop-color="#ffffff" offset="1"/>
</linearGradient>
</defs>
<g id="wiki-logo" vectornator:layerName="wiki-logo">
<path stroke="#000000" stroke-width="5.45" d="M276.468+34.8561C269.83+35.318+263.554+39.5849+261.843+49.7737C260.337+58.7369+259.865+73.8082+257.146+91.2676C237.861+93.4234+216.266+97.0463+191.425+102.237C191.425+102.237+166.717+110.401+159.303+123.7C148.667+142.777+158.462+168.145+199.449+159.152C213.856+155.991+225.91+153.035+236.778+150.329C217.497+182.129+182.967+210.665+152.567+233.846C85.6508+284.874+73.9911+367.469+73.9911+367.469C147.417+287.916+235.463+291.636+235.463+291.636C235.463+291.636+256.47+215.31+276.925+177.541C284.103+164.286+288.892+151.608+292.302+139.651C300.773+139.76+307.744+141.81+314.495+146.54C404.566+209.644+273.758+296.829+273.758+296.829C273.758+296.829+362.323+264.933+386.388+215.06C406.575+173.226+404.396+118.218+343.827+96.6199C330.94+92.0249+316.347+89.5674+299.359+89.0684C299.348+84.5433+299.232+80.2781+299.011+76.5884C297.975+59.338+295.012+47.442+295.012+47.442C294.153+39.9588+285.004+34.2621+276.468+34.8561Z" fill="url(#LinearGradient)" stroke-linecap="round" opacity="1" stroke-linejoin="round"/>
<path stroke="#000000" stroke-width="5.45" d="M214.502+337.976C214.502+322.361+227.075+309.702+242.584+309.702C258.093+309.702+270.665+322.361+270.665+337.976C270.665+353.591+258.093+366.249+242.584+366.249C227.075+366.249+214.502+353.591+214.502+337.976Z" fill="url(#LinearGradient_2)" stroke-linecap="round" opacity="1" stroke-linejoin="round"/>
<path stroke="#000000" stroke-width="5.45" d="M337.599+28.4913C337.599+17.0686+346.977+7.80869+358.546+7.80869C370.115+7.80869+379.493+17.0686+379.493+28.4913C379.493+39.914+370.115+49.1739+358.546+49.1739C346.977+49.1739+337.599+39.914+337.599+28.4913Z" fill="url(#LinearGradient_3)" stroke-linecap="round" opacity="1" stroke-linejoin="round"/>
<path stroke="#000000" stroke-width="5.45" d="M399.345+146.298C409.36+150.74+419.052+149.306+421.18+168.157C424.837+200.547+380.818+218.386+287.324+234.508C193.829+250.63+111.948+245.76+108.291+213.369C106.851+200.613+117.978+188.954+136.853+175.888C110.856+191.793+93.6288+203.529+95.3974+219.346C99.3476+254.672+184.567+269.03+285.757+251.423C386.946+233.815+441.506+203.183+437.556+167.857C435.073+145.652+404.805+143.171+399.345+146.298Z" fill="url(#LinearGradient_4)" stroke-linecap="round" opacity="1" stroke-linejoin="round"/>
</g>
<g id="word-mark" vectornator:layerName="word-mark">
<path stroke="#000000" stroke-width="2.2" d="M334.188+381.156C334.188+381.156+332.591+395.274+331.344+406.469C325.617+407.924+320.937+409.219+320.938+409.219C323.983+409.158+327.741+408.523+331.219+407.938C330.846+411.307+330.739+411.65+330.344+415.375C327.77+416.928+327.005+417.614+323.094+419.812C286.618+440.315+304.941+445.495+323.469+440.812C325.116+440.396+326.507+439.793+328.094+439.312C327.039+451.406+326.279+462.041+326.75+465.375C328.198+475.614+334.015+473.698+341.156+467C348.298+460.302+353.199+452.567+357.719+445.219C361.586+438.932+354.458+437.013+350+439.906C347.468+441.55+345.473+443.772+343.312+446.438C337.841+453.186+340.167+448.927+339.688+441.844C339.502+439.1+339.281+438.121+339.094+435.594C351.818+430.391+360.687+424.531+360.688+424.531C356.631+424.893+356.163+425.047+349.25+426.125C349.25+426.125+342.207+427.09+338.469+428.375C338.171+424.704+337.944+421.483+337.656+418.312C340.728+416.108+343.561+414.014+346.969+411.688C363.602+400.33+349.571+402.314+336.5+405.312C335.333+393.824+334.453+385.567+334.188+381.156ZM236.219+388.156C235.939+395.944+235.819+404.62+235.812+413.375C233.945+414.032+232.103+414.569+230.375+414.719C219.243+415.681+204.617+403.205+231.812+393.25C231.812+393.25+191.299+401.584+218.906+417.906C222.513+420.039+228.931+419.797+235.875+418.031C235.894+421.889+236.089+424.96+236.156+428.719C234.629+427.379+232.853+425.665+231.844+425.062C231.844+425.062+233.73+428.144+236.281+432.125C236.71+451.417+237.596+468.716+239.281+471.906C242.259+477.543+245.857+475.17+246.625+471.75C246.899+470.531+245.331+457.516+243.406+442.469C249.22+450.307+256.05+458.056+261.094+458.688C271.691+460.014+273.472+458.488+276.5+458.344C279.528+458.199+281.208+456.421+282.531+450.562C283.855+444.704+289.08+402.397+290.094+396.5C291.108+390.603+291.656+389.676+285.469+389.125C283.073+388.912+281.508+388.752+280.375+388.75C279.242+388.748+278.562+388.885+277.844+389.25C273.632+391.391+276.838+393.062+278.438+393.312C282.016+393.872+282.862+394.761+282.281+398.031C282.246+398.227+281.951+400.448+281.844+401.188L273.188+402.25C272.935+402.282+272.792+402.459+272.594+402.594C272.598+399.965+272.724+398.259+272.594+394.625C272.594+394.625+264.037+440.988+261+452.062C260.628+453.42+250.911+442.901+242.375+434.438C241.579+428.332+240.861+422.605+240.062+416.625C245.189+414.9+250.325+412.644+254.688+409.625C269.214+399.572+265.698+396.551+265.562+393C265.34+387.171+256.237+385.754+256.812+395.219C257.064+399.348+248.448+407.593+239.438+411.938C238.118+402.114+236.219+388.156+236.219+388.156ZM444.188+388.156C444.188+388.156+488.607+400.003+452.906+401.469C452.906+401.469+413.694+404.36+414.438+402.188C415.528+399+414.556+398.875+428.531+389C428.531+389+383.397+407.39+416.844+406.875C417.412+406.866+451.405+406.207+468.25+402.969C476.146+401.451+476.477+398.131+470.781+393.688C465.085+389.244+451.076+389.457+444.188+388.156ZM164.281+388.188C159.839+388.372+155.825+388.797+152.219+389.438C126.975+393.922+121.219+407.937+121.219+407.938C122.438+412.761+130.035+409.119+132.219+407C132.219+407+134.418+397.487+149.531+394.281C164.645+391.076+190.847+396.579+171.375+416.094C171.375+416.094+168.216+417.374+163.781+418.969C163.22+416.56+162.482+414.641+162+412C162+412+161.945+415.995+161.938+419.562C156.141+421.565+148.822+423.751+141.188+424.562C141.71+422.033+141.918+420.424+142.625+417.25C142.625+417.25+141.109+420.338+139.156+424.656C131.848+425.17+124.955+424.312+120.562+420.219C120.562+420.219+120.503+429.447+137.312+429.281C132.333+441.179+126.484+458.652+132.406+467.406C134.728+470.839+142.11+468.107+141.594+465.312C138.583+449.011+136.906+446.679+140.219+429.219C145.71+428.83+153.061+427.333+162.094+424.656C163.181+443.812+169.856+477.452+204.938+470.656C204.938+470.656+177.642+470.729+164.938+423.719C167.639+422.871+169.925+422.342+172.969+421.25C185.197+416.863+200.267+386.693+164.281+388.188ZM83.125+390.781C83.1182+391.503+83.0778+392.011+83.0625+392.688C83.1777+391.492+83.125+390.781+83.125+390.781ZM83.0625+392.688C82.737+396.064+81.0708+403.735+73.0312+413.469C50.2978+407.911+27.3125+418.219+27.3125+418.219C45.3875+416.406+58.4246+416.946+68+418.844C64.8875+421.931+61.3874+425.099+56.8438+428.406C54.3169+430.246+52.182+432.199+50.2812+434.219C46.3948+432.496+43.4062+430.906+43.4062+430.906C45.1234+432.874+46.9818+434.488+48.875+435.938C39.0164+447.509+37.8684+460.346+37.3438+463.188C36.2487+469.119+44.399+470.969+45.4375+466.094C45.9996+463.455+47.0185+457.416+48.875+453.344C50.4758+449.832+53.2524+445.488+56.875+440.531C68.0614+445.125+80.3681+443.656+90.1875+440.969C88.8846+448.91+82.955+456.437+78.375+459.25C69.4314+464.744+81.681+465.275+82.75+464.562C84.9765+463.079+99.8084+451.09+99.8125+437.781C104.737+435.802+108+434.094+108+434.094C104.399+435.15+102.445+435.692+99.75+436.469C99.3446+431.172+96.5342+425.735+89.4688+420.688C85.6615+417.967+81.6552+416.128+77.5938+414.719C81.5692+408.628+82.826+403.149+83.0625+392.688ZM154.875+399.188C154.215+399.17+153.49+399.301+152.719+399.562C150.404+400.347+148.183+402.158+149.875+403.719C152.132+405.8+152.164+406.982+148.469+407.562C147.998+407.636+127.285+412.863+138.188+406.312C138.188+406.312+126.303+411.96+138.125+412.469C144.347+412.736+159.456+407.404+161.344+406.125C166.104+402.901+157.514+399.259+154.875+399.188ZM281.344+404.531C280.908+407.601+280.618+409.661+280.125+413.094C280.03+413.085+279.973+413.019+279.875+413.031L272.594+413.938C272.644+411.408+272.561+407.892+272.594+405.219C272.888+405.4+273.228+405.546+273.594+405.5L281.344+404.531ZM340.562+406.75C342.614+406.816+341.127+408.384+337+411.25C336.89+410.117+336.794+408.311+336.688+407.25C337.984+407.07+339.781+406.725+340.562+406.75ZM374.875+410.781C374.875+410.781+368.438+420.765+368.438+448.875C368.438+456.017+374.375+460.482+386.938+455.062C394.566+451.772+391.258+447.334+386.719+447.188C381.684+447.025+378.723+452.12+377.312+445.906C375.289+436.994+374.902+419.872+374.875+410.781ZM279.688+415.938C279.196+419.375+279.096+420.118+278.562+423.875C278.159+423.62+277.725+423.437+277.219+423.5L272.594+424.062C272.524+424.071+272.473+424.172+272.406+424.188C272.546+422.244+272.523+418.946+272.594+416.812L279.688+415.938ZM425.375+419.969C425.375+419.969+408.6+436.581+407.219+467.562C406.662+480.043+414.358+475.939+415.312+469.5C416.322+462.687+414.321+452.631+425.375+419.969ZM73.6562+420.125C86.8763+424.158+90.7902+431.6+90.3125+439.031C80.3159+441.567+78.1096+440.915+67.7812+439.469C64.8592+439.059+62.0007+438.352+59.2812+437.531C61.7721+434.302+64.0671+431.197+67.5625+427.281C70.0981+424.441+71.8752+422.297+73.6562+420.125ZM329.469+424.406C329.198+427.109+329.031+429.505+328.781+432.156C315.479+437.067+319.297+432.321+329.469+424.406ZM463.406+426.781C472.667+458.413+467.75+464.236+467.75+469.75C467.75+479.671+477.844+481.757+476.562+467.75C473.398+433.155+463.406+426.781+463.406+426.781ZM278.031+427.656C276.501+438.45+274.895+449.837+274.75+450.812C274.419+453.037+272.037+453.706+269.938+453.969C267.838+454.231+269.558+446.993+269.875+444.938C270.91+438.223+271.431+433.351+271.938+428.125C272.304+428.312+272.689+428.461+273.125+428.406L277.75+427.844C277.869+427.829+277.92+427.69+278.031+427.656ZM226.219+428.219C226.219+428.219+218.589+442.824+215+453.031C211.41+463.238+221.504+463.707+223.469+457.969C225.434+452.231+219.867+448.702+226.219+428.219ZM444.719+429.344C438.707+429.226+433.25+430.656+433.25+430.656C441.157+432.011+460.385+432.483+450.719+430.062C448.771+429.575+446.723+429.383+444.719+429.344ZM426.062+445.656C426.062+445.656+427.514+462.089+447.438+461.156C449.85+461.043+468.755+450.936+441.844+447.562C441.844+447.562+456.067+457.746+441.188+457.094C441.188+457.094+427.56+453.71+426.062+445.656Z" fill="url(#LinearGradient_5)" stroke-linecap="round" opacity="1" stroke-linejoin="round"/>
</g>
</svg>